<svg width="24" height="24" viewBox="0 0 24 24" fill="none" xmlns="http://www.w3.org/2000/svg">
<path d="M23.1823 10.7503C22.7307 10.7503 22.3641 10.4143 22.3641 10.0003C22.3641 7.12827 21.1446 4.42931 18.9299 2.39832C18.6103 2.10535 18.6103 1.63037 18.9299 1.3374C19.2495 1.04443 19.7677 1.04443 20.0875 1.3374C22.6108 3.65133 24.0005 6.72838 24.0005 10.0003C24.0005 10.4143 23.6339 10.7503 23.1823 10.7503ZM0.818201 10.7503C0.366554 10.7503 0 10.4143 0 10.0003C0 6.72843 1.38992 3.65133 3.91422 1.33834C4.23383 1.04537 4.75222 1.04537 5.07183 1.33834C5.39144 1.63131 5.39144 2.10648 5.07183 2.39945C2.85614 4.42931 1.6364 7.12827 1.6364 10.0003C1.6364 10.4143 1.26985 10.7503 0.818201 10.7503ZM12.0004 24.0003C9.74432 24.0003 7.90935 22.3183 7.90935 20.2503C7.90935 19.8363 8.2759 19.5003 8.72755 19.5003C9.1792 19.5003 9.54575 19.8363 9.54575 20.2503C9.54575 21.4914 10.6464 22.5003 12.0004 22.5003C13.3541 22.5003 14.455 21.4914 14.455 20.2503C14.455 19.8363 14.8215 19.5003 15.2732 19.5003C15.7248 19.5003 16.0914 19.8363 16.0914 20.2503C16.0914 22.3183 14.2564 24.0003 12.0004 24.0003Z" fill="#0184FF"/>
<path d="M21.0074 20.9997H3.00693C1.95401 20.9997 1.09766 20.2147 1.09766 19.2498C1.09748 18.997 1.15709 18.7472 1.27238 18.5176C1.38767 18.288 1.55589 18.084 1.76546 17.9197C3.42462 16.6347 4.37046 14.7668 4.37046 12.7878V9.99967C4.37046 6.13981 7.79607 2.99976 12.0071 2.99976C16.218 2.99976 19.6436 6.13981 19.6436 9.99967V12.7878C19.6436 14.7668 20.5895 16.6347 22.2378 17.9128C22.6731 18.2527 22.9164 18.7376 22.9164 19.2498C22.9164 20.2147 22.0601 20.9997 21.0074 20.9997ZM12.0071 4.49975C8.69818 4.49975 6.00686 6.96673 6.00686 9.99967V12.7878C6.00686 15.2086 4.84947 17.4947 2.83235 19.0577C2.7942 19.0877 2.73406 19.1498 2.73406 19.2498C2.73406 19.3856 2.85853 19.4997 3.00693 19.4997H21.0074C21.1556 19.4997 21.28 19.3856 21.28 19.2498C21.28 19.1498 21.2201 19.0877 21.1839 19.0597C19.1646 17.4947 18.0072 15.2086 18.0072 12.7878V9.99967C18.0072 6.96673 15.3159 4.49975 12.0071 4.49975Z" fill="#0184FF"/>
<path d="M11.994 4.49974C11.5423 4.49974 11.1758 4.16374 11.1758 3.74974V0.749754C11.1758 0.335755 11.5423 -0.000244141 11.994 -0.000244141C12.4456 -0.000244141 12.8122 0.335755 12.8122 0.749754V3.74974C12.8122 4.16374 12.4456 4.49974 11.994 4.49974Z" fill="#0184FF"/>
</svg>
