<svg width="84" height="84" viewBox="0 0 84 84" fill="none" xmlns="http://www.w3.org/2000/svg">
<g clip-path="url(#clip0_1121_28836)">
<path d="M42 0C18.7993 0 0 18.7993 0 42C0 65.2007 18.7993 84 42 84C65.2007 84 84 65.2007 84 42C84 18.7993 65.2007 0 42 0ZM8.44165 30.4205C9.71901 29.1431 11.8017 29.1431 13.079 30.4205C14.3564 31.6979 14.3564 33.7805 13.079 35.0578C11.8017 36.3352 9.71901 36.3352 8.44165 35.0578C7.1643 33.7805 7.1643 31.6979 8.44165 30.4205ZM58.3696 32.4615C58.3696 32.4615 58.3696 32.4615 58.3696 32.4476C58.3696 31.8367 58.7584 27.963 55.0512 24.2559C51.3441 20.5488 47.1788 21.2152 47.1788 21.2152C47.1788 21.2152 47.0817 21.1874 47.0261 21.1874C46.9706 21.1874 46.9289 21.1874 46.8734 21.1874C46.8734 21.1874 46.8734 21.1874 46.8595 21.1874C46.2486 21.1874 42.3749 20.7987 38.6678 24.5058C34.9607 28.2129 35.6271 32.3782 35.6271 32.3782C35.6271 32.3782 35.6271 32.5031 35.6271 32.5726C35.6271 32.6281 35.6271 32.6836 35.6271 32.7392C35.6271 32.7392 34.9607 36.9045 38.6678 40.6116C42.2221 44.166 45.9293 43.9577 46.7623 43.9438C48.359 43.8744 49.9835 44.4436 51.2053 45.6655C52.3716 46.8317 52.9547 48.359 52.9408 49.8863C52.9408 49.9557 52.9269 50.0112 52.9269 50.0807C52.9269 50.3861 52.8992 50.7055 52.8436 51.0109C52.6215 52.1355 52.08 53.2185 51.2053 54.0932C49.9835 55.315 48.359 55.8843 46.7484 55.8149C45.8876 55.7871 42.2083 55.5927 38.6539 59.1471C34.9468 62.8542 35.6132 67.0195 35.6132 67.0195C35.641 67.797 35.516 68.5745 35.2383 69.3104C35.2383 69.3243 35.2383 69.3521 35.2245 69.366C35.0995 69.6992 34.9329 70.0046 34.7524 70.3101C34.7246 70.3517 34.7107 70.4073 34.683 70.4489C34.4608 70.796 34.197 71.1154 33.9055 71.4069C32.0727 73.2397 29.3653 73.6007 27.1577 72.5593C26.5607 72.2817 25.9914 71.9068 25.4916 71.4069C25.4499 71.3653 25.4221 71.3236 25.3805 71.282C25.1306 71.0182 24.9084 70.7405 24.714 70.4489C24.6724 70.3795 24.6307 70.2962 24.5891 70.2129C24.4225 69.9352 24.2698 69.6575 24.1587 69.3521C24.1448 69.3104 24.1448 69.2826 24.1309 69.241C23.8671 68.519 23.7421 67.7693 23.7699 67.0056C23.7699 67.0056 24.4364 62.8403 20.7293 59.1332C17.0222 55.4261 13.1484 55.8149 12.5236 55.8149C10.9547 55.8426 9.38579 55.2873 8.19174 54.0793C5.87306 51.7607 5.87306 47.9841 8.19174 45.6655C10.5104 43.3468 14.2869 43.3468 16.6056 45.6655C17.7997 46.8595 18.3689 48.4423 18.3273 49.9974C18.3273 50.6083 17.9385 54.4959 21.6595 58.203C25.3666 61.9101 29.5319 61.2436 29.5319 61.2436C29.5319 61.2436 29.6569 61.2714 29.7124 61.2714C29.7679 61.2714 29.8374 61.2575 29.8929 61.2714C29.8929 61.2714 34.0582 61.924 37.7653 58.2169C41.4724 54.5098 41.0836 50.636 41.0836 50.0251C41.0836 49.9835 41.0836 49.9557 41.0836 49.9141C41.0836 49.8724 41.0836 49.8307 41.0836 49.7891C41.0836 49.1782 41.4724 45.2906 37.7653 41.5835C34.0582 37.8764 29.8929 38.5428 29.8929 38.5428C29.1293 38.5428 28.3517 38.4317 27.6298 38.154C27.602 38.154 27.5742 38.154 27.5464 38.1263C27.2271 38.0013 26.9217 37.8347 26.6301 37.6542C26.5745 37.6264 26.519 37.5987 26.4635 37.5709C26.1164 37.3488 25.797 37.085 25.5055 36.7934C23.7699 35.0578 23.3256 32.5031 24.2003 30.3511C24.3253 30.0456 24.478 29.7679 24.6585 29.4902C24.6863 29.4347 24.714 29.3792 24.7418 29.3236C24.964 28.9904 25.2139 28.685 25.5055 28.3934C25.797 28.1018 26.1302 27.838 26.4635 27.6159C26.5329 27.5742 26.6023 27.5464 26.6717 27.5048C26.9494 27.3382 27.241 27.1855 27.5464 27.0605C27.5881 27.0466 27.6436 27.0327 27.6853 27.0188C28.0185 26.8939 28.3656 26.7967 28.7127 26.7412C28.7127 26.7412 28.7405 26.7412 28.7544 26.7412C29.1293 26.6856 29.518 26.6579 29.8929 26.6717C29.8929 26.6717 34.0582 27.3243 37.7653 23.6172C41.4724 19.9101 41.0836 16.0364 41.0836 15.4116C41.0698 14.6341 41.1947 13.8565 41.4863 13.1207C41.4863 13.1207 41.4863 13.1068 41.4863 13.0929C41.6112 12.7736 41.7779 12.4542 41.9722 12.1488C42 12.1071 42.0139 12.0655 42.0417 12.0238C42.2638 11.6906 42.5137 11.3712 42.8192 11.0658C43.1107 10.7742 43.4162 10.5243 43.7494 10.3021C46.0542 8.77488 49.1921 9.02479 51.2331 11.0658C51.5246 11.3712 51.7884 11.6906 52.0106 12.0238C52.0522 12.0793 52.0661 12.1349 52.1078 12.2043C52.2883 12.4959 52.441 12.8013 52.566 13.1068C52.5798 13.1484 52.5937 13.1901 52.6076 13.2317C52.7326 13.565 52.8298 13.9121 52.8853 14.2592C52.8853 14.2592 52.8853 14.2869 52.8853 14.3008C52.9408 14.6757 52.9686 15.0645 52.9547 15.4532C52.9547 15.4532 52.2883 19.6185 55.9954 23.3256C59.7025 27.0327 63.5762 26.644 64.1871 26.644C65.756 26.6023 67.325 27.1716 68.519 28.3795C70.8377 30.6982 70.8377 34.4747 68.519 36.7934C66.2003 39.1121 62.4377 39.1121 60.1051 36.7934C58.9111 35.5993 58.3418 34.0304 58.3696 32.4615ZM62.7987 59.6747C60.0912 56.9673 60.0912 52.5937 62.7987 49.8724C65.4922 47.165 69.8797 47.165 72.5871 49.8724C75.2945 52.5798 75.2945 56.9673 72.5871 59.6747C69.8797 62.3821 65.5061 62.3821 62.7987 59.6747Z" fill="url(#paint0_linear_1121_28836)"/>
</g>
<defs>
<linearGradient id="paint0_linear_1121_28836" x1="0" y1="42" x2="84" y2="42" gradientUnits="userSpaceOnUse">
<stop stop-color="#21489F"/>
<stop offset="1" stop-color="#0184FF"/>
</linearGradient>
<clipPath id="clip0_1121_28836">
<rect width="84" height="84" fill="white"/>
</clipPath>
</defs>
</svg>
