<svg width="32" height="33" viewBox="0 0 32 33" fill="none" xmlns="http://www.w3.org/2000/svg">
<g clip-path="url(#clip0_665_6168)">
<path d="M13.824 9.23794C13.801 9.0695 13.6551 8.94244 13.4845 8.94244C13.3139 8.94244 13.168 9.06944 13.1449 9.23794C13.1076 9.51156 12.8554 9.70331 12.5819 9.66575C12.4505 9.64782 12.3317 9.57844 12.2514 9.47285C12.1712 9.36727 12.1362 9.23414 12.1541 9.10275C12.2444 8.44131 12.8163 7.9425 13.4844 7.9425C14.1526 7.9425 14.7245 8.44131 14.8147 9.10275C14.8244 9.17353 14.8188 9.24556 14.7983 9.31399C14.7778 9.38243 14.7429 9.44567 14.6959 9.49946C14.6489 9.55326 14.5909 9.59635 14.5258 9.62584C14.4608 9.65534 14.3901 9.67054 14.3187 9.67044C14.1979 9.67026 14.0813 9.62638 13.9903 9.54689C13.8994 9.4674 13.8403 9.35768 13.8239 9.238L13.824 9.23794ZM17.6142 9.66575C17.8877 9.70331 18.1399 9.51163 18.1772 9.23794C18.2002 9.0695 18.3462 8.94244 18.5167 8.94244C18.6873 8.94244 18.8332 9.06944 18.8562 9.23794C18.8651 9.303 18.8867 9.36567 18.9198 9.42237C18.9529 9.47908 18.9969 9.52871 19.0492 9.56844C19.1014 9.60816 19.161 9.6372 19.2245 9.65389C19.288 9.67058 19.3542 9.6746 19.4193 9.66572C19.4843 9.65684 19.547 9.63523 19.6037 9.60213C19.6604 9.56903 19.7101 9.52508 19.7498 9.4728C19.7895 9.42052 19.8185 9.36092 19.8352 9.29742C19.8519 9.23392 19.8559 9.16775 19.8471 9.10269C19.7568 8.44125 19.1849 7.94244 18.5167 7.94244C17.8486 7.94244 17.2767 8.44125 17.1864 9.10269C17.1775 9.16775 17.1816 9.23392 17.1983 9.29742C17.215 9.36093 17.244 9.42052 17.2837 9.47281C17.3234 9.52509 17.3731 9.56903 17.4298 9.60213C17.4865 9.63522 17.5492 9.65682 17.6142 9.66569V9.66575ZM18.0976 13.2521C18.1317 13.1956 18.1543 13.1329 18.164 13.0676C18.1737 13.0023 18.1704 12.9357 18.1543 12.8717C18.1381 12.8077 18.1095 12.7475 18.0699 12.6946C18.0304 12.6417 17.9808 12.5972 17.924 12.5636C17.8672 12.53 17.8042 12.5079 17.7389 12.4988C17.6735 12.4896 17.6069 12.4935 17.5431 12.5102C17.4792 12.5269 17.4192 12.556 17.3667 12.596C17.3142 12.636 17.2701 12.686 17.2369 12.7431C16.9794 13.1785 16.5057 13.449 16.0006 13.449C15.4956 13.449 15.0219 13.1785 14.7644 12.7431C14.6969 12.6289 14.5868 12.5463 14.4583 12.5133C14.3299 12.4804 14.1936 12.4997 14.0795 12.5673C13.9654 12.6348 13.8827 12.7448 13.8498 12.8733C13.8168 13.0017 13.8362 13.138 13.9037 13.2521C14.3403 13.9904 15.1438 14.4491 16.0007 14.4491C16.8576 14.4491 17.6611 13.9904 18.0977 13.2521H18.0976ZM28.9622 25.2737V31.9376C28.9622 32.0702 28.9095 32.1974 28.8157 32.2912C28.722 32.3849 28.5948 32.4376 28.4622 32.4376H3.53906C3.40645 32.4376 3.27928 32.3849 3.18551 32.2912C3.09174 32.1974 3.03906 32.0702 3.03906 31.9376V25.2737C3.03906 20.8664 6.62462 17.2808 11.0319 17.2808H11.7058L12.6822 16.5934V15.6018C10.8979 14.5008 9.69787 12.5405 9.66356 10.3023C9.00762 10.1943 8.50168 9.54325 8.50168 8.75831C8.50168 7.97338 9.007 7.32281 9.66231 7.21419V6.90088C9.66218 3.40588 12.5056 0.5625 16.0006 0.5625C19.4956 0.5625 22.3391 3.40588 22.3391 6.90081V7.21413C22.9943 7.32281 23.4996 7.97356 23.4996 8.75794C23.4996 9.54231 22.9937 10.1941 22.3378 10.3023C22.3035 12.5405 21.1034 14.5009 19.3189 15.6019V16.5933L20.2955 17.2808H20.9694C25.3767 17.2808 28.9622 20.8664 28.9622 25.2737ZM20.9694 18.2808H20.4275L18.4142 21.8089C18.3729 21.8814 18.314 21.9423 18.2431 21.9862C18.1721 22.0301 18.0913 22.0556 18.0079 22.0603C17.9246 22.0649 17.8415 22.0487 17.766 22.013C17.6906 21.9772 17.6253 21.9232 17.5761 21.8558L17.41 21.6281L17.2008 22.1999L18.0642 27.4744C19.6909 25.2253 21.0508 22.031 21.3883 18.2936C21.2488 18.2852 21.1092 18.2809 20.9694 18.2808H20.9694ZM12.5237 17.9279L14.0727 20.6424L15.2978 18.9638L13.1814 17.4649L12.5238 17.9278L12.5237 17.9279ZM16.7035 18.9639L17.9286 20.6424L19.4776 17.9279L18.8199 17.465L16.7036 18.9639L16.7035 18.9639ZM15.3005 20.6564L15.6645 21.6513H16.3366L16.7007 20.6564L16.0006 19.6971L15.3005 20.6564ZM14.7782 28.5273C15.1812 28.9838 15.592 29.3841 16.0006 29.7206C16.4092 29.3841 16.8201 28.9838 17.2231 28.5273L16.2613 22.6514H15.7398L14.7782 28.5273ZM22.3391 8.29987V9.21631C22.4306 9.11681 22.4996 8.95256 22.4996 8.758C22.4996 8.56344 22.4306 8.39931 22.3391 8.29987ZM10.6622 6.90081V8.02987C11.1562 7.618 11.4913 7.05237 11.7957 6.53825C12.1679 5.90975 12.4894 5.36694 13.0566 5.27056C13.3749 5.21625 13.7005 5.32381 14.0246 5.58969C15.2274 6.40369 16.7739 6.40369 17.9767 5.58969C18.3008 5.32381 18.6264 5.21644 18.9446 5.27056C19.5119 5.36694 19.8334 5.90975 20.2055 6.53825C20.5099 7.05237 20.845 7.618 21.3391 8.02987V6.90081C21.3391 3.95725 18.9442 1.5625 16.0006 1.5625C13.057 1.5625 10.6622 3.95725 10.6622 6.90081ZM9.50162 8.75831C9.50162 8.95288 9.57068 9.11713 9.66225 9.2165V8.29981C9.57068 8.39931 9.50162 8.56363 9.50162 8.75831ZM16.0006 15.5421C18.9442 15.5421 21.3391 13.1474 21.3391 10.2038V9.22369C20.3227 8.69519 19.7596 7.74769 19.3451 7.04775C19.1717 6.755 18.9113 6.31519 18.78 6.25812C18.7627 6.26269 18.7051 6.28338 18.5997 6.37206C18.5872 6.38263 18.5741 6.39256 18.5606 6.40188C17.0054 7.46825 14.9957 7.46825 13.4407 6.40188C13.4271 6.3926 13.4141 6.38265 13.4016 6.37206C13.2962 6.28338 13.2387 6.26269 13.2213 6.25812C13.09 6.31519 12.8296 6.755 12.6562 7.04775C12.2418 7.74769 11.6786 8.69519 10.6622 9.22369V10.2038C10.6622 13.1473 13.0571 15.5421 16.0007 15.5421H16.0006ZM13.6822 16.103V16.5942L16.0006 18.2362L18.3189 16.5942V16.103C17.6006 16.3863 16.8184 16.542 16.0006 16.542C15.1828 16.542 14.4006 16.3863 13.6822 16.1029V16.103ZM11.0319 18.2808C10.8912 18.2808 10.7516 18.2854 10.613 18.2936C10.9506 22.031 12.3104 25.2253 13.9371 27.4744L14.8004 22.1999L14.5912 21.6282L14.4252 21.8558C14.376 21.9231 14.3107 21.9771 14.2352 22.0128C14.1598 22.0485 14.0767 22.0648 13.9934 22.0601C13.9101 22.0554 13.8292 22.03 13.7583 21.9861C13.6873 21.9422 13.6284 21.8813 13.5871 21.8088L11.5738 18.2807H11.0319L11.0319 18.2808ZM4.03906 25.2737V28.6594C5.29806 28.6579 5.99162 28.8075 6.55919 28.9304C6.91325 29.007 7.20956 29.0708 7.5825 29.0831V22.7933C7.5825 22.6607 7.63518 22.5335 7.72894 22.4398C7.82271 22.346 7.94989 22.2933 8.0825 22.2933C8.21511 22.2933 8.34228 22.346 8.43605 22.4398C8.52982 22.5335 8.5825 22.6607 8.5825 22.7933V31.4376H23.4187V22.7933C23.4187 22.6607 23.4714 22.5335 23.5652 22.4398C23.659 22.346 23.7861 22.2933 23.9187 22.2933C24.0513 22.2933 24.1785 22.346 24.2723 22.4398C24.3661 22.5335 24.4187 22.6607 24.4187 22.7933V29.0831C24.7916 29.0708 25.0879 29.007 25.442 28.9304C26.0096 28.8075 26.7032 28.6573 27.9622 28.6593V25.2738C27.9622 21.9012 25.5624 19.0786 22.3807 18.424C22.1431 20.9893 21.4242 23.5071 20.2891 25.7376C19.2135 27.8511 17.7971 29.6336 16.3008 30.7567C16.2143 30.8217 16.1089 30.8569 16.0006 30.8569C15.8924 30.8569 15.787 30.8217 15.7005 30.7567C14.2042 29.6336 12.7878 27.8511 11.7122 25.7376C10.5771 23.5071 9.85831 20.9893 9.62068 18.424C6.439 19.0786 4.03912 21.9012 4.03912 25.2738L4.03906 25.2737ZM4.03906 31.4376H7.5825V30.0829C7.10419 30.0703 6.73381 29.9913 6.34769 29.9078C5.80144 29.7895 5.18944 29.6569 4.03906 29.6593V31.4377V31.4376ZM27.9622 31.4376V29.6591C26.8117 29.6567 26.1997 29.7894 25.6535 29.9077C25.2674 29.9913 24.897 30.0703 24.4187 30.0829V31.4376H27.9622V31.4376Z" fill="url(#paint0_linear_665_6168)"/>
</g>
<defs>
<linearGradient id="paint0_linear_665_6168" x1="3.03906" y1="16.5001" x2="28.9622" y2="16.5001" gradientUnits="userSpaceOnUse">
<stop stop-color="#21489F"/>
<stop offset="1" stop-color="#0184FF"/>
</linearGradient>
<clipPath id="clip0_665_6168">
<rect width="32" height="32" fill="white" transform="translate(0 0.5)"/>
</clipPath>
</defs>
</svg>
